<?xml version="1.0" standalone="no"?><!DOCTYPE svg PUBLIC "-//W3C//DTD SVG 1.1//EN" "http://www.w3.org/Graphics/SVG/1.1/DTD/svg11.dtd"><svg t="1558258997801" class="icon" style="" viewBox="0 0 1201 1024" version="1.1" xmlns="http://www.w3.org/2000/svg" p-id="600" xmlns:xlink="http://www.w3.org/1999/xlink" width="18.765625" height="16"><defs><style type="text/css"></style></defs><path d="M903.62324902 526.69698945L548.15650859 882.26979013l-348.82030019-347.64185302c-93.17980107-93.20336982-96.00807393-247.83917959-6.16327735-337.69576055 91.30607051-91.22357901 239.99072344-92.01313828 331.55605195-1.75588594a32.99651455 32.99651455 0 0 0 46.25404278 0.10606026A234.36953086 234.36953086 0 0 1 734.30399023 128.34656387a32.99651455 32.99651455 0 0 0 32.85510118-33.19685069c-0.09427588-18.24235927-15.31981055-33.12614443-33.19685069-32.85510117a299.92653545 299.92653545 0 0 0-185.95892988 65.2977457C429.97006338 33.06912734 255.91344717 40.79973887 146.51821602 150.20675528c-113.5197958 113.5197958-112.41205576 306.9500792 1.69696318 426.53887646a43.6025373 43.6025373 0 0 0 5.46799395 5.89223496c0.81312803 0.75420615 1.63804131 1.43770518 2.46295458 2.09763545l368.73605303 367.59295986a32.99651455 32.99651455 0 0 0 46.67828467 0l378.74106826-378.87069727a33.02715411 33.02715411 0 0 0-46.7136378-46.70185253z" fill="#4D4D4D" p-id="601"></path><path d="M1085.03337412 221.10212393h-125.03322246V96.03354834a33.02597636 33.02597636 0 1 0-66.05195186 0v125.06857559H768.92676172a32.99651455 32.99651455 0 1 0 0 65.99302998h125.02143808v125.04500684a33.02597636 33.02597636 0 1 0 66.05195186-1e-8V287.09515391h125.03322246a32.99651455 32.99651455 0 0 0 0-65.99302998z" fill="#4D4D4D" p-id="602"></path></svg>