<?xml version="1.0" standalone="no"?><!DOCTYPE svg PUBLIC "-//W3C//DTD SVG 1.1//EN" "http://www.w3.org/Graphics/SVG/1.1/DTD/svg11.dtd"><svg t="1558771195328" class="icon" style="" viewBox="0 0 1024 1024" version="1.1" xmlns="http://www.w3.org/2000/svg" p-id="615" xmlns:xlink="http://www.w3.org/1999/xlink" width="16" height="16"><defs><style type="text/css"></style></defs><path d="M885.94295467 104.58453333h-748.96725334C102.64029867 104.58453333 74.5472 133.06538667 74.5472 167.886848V800.90453333c0 34.816 28.09309867 63.30231467 62.42304 63.30231467h530.51938133V800.90453333h-499.318784c-18.726912 0-31.20059733-15.826944-31.20059733-31.653888V199.53527467c0-15.82148267 12.47368533-31.64842667 31.20059733-31.64842667h686.56605867c18.73237333 0 31.20605867 15.826944 31.20605867 31.64842667v411.46231466H948.36053333v-443.11074133c0-34.82146133-28.082176-63.30231467-62.41757866-63.30231467zM819.02523733 599.474176c-6.23684267-6.30237867-12.46276267-9.44810667-21.81256533-9.44810667-9.34434133 0-15.58664533 3.145728-21.81256533 9.44810667l-87.25572267 88.15684267c-12.468224 12.599296-12.468224 31.490048 0 44.089344 12.46276267 12.58837333 31.162368 12.58837333 43.62513067 0l34.28625066-34.64123734v195.22082134C766.05576533 908.03950933 778.51306667 923.78453333 797.212672 923.78453333c18.694144 0 31.15690667-12.59383467 31.15690667-31.48458666v-195.22082134l37.39921066 37.781504c12.46276267 12.59383467 31.162368 12.59383467 43.630592 0 12.46276267-12.58837333 12.46276267-31.490048 0-44.07842133l-90.374144-91.308032z m-408.223744-236.158976c15.57572267-34.63031467 6.23684267-75.56846933-18.69960533-103.90186667-28.04394667-28.33885867-71.67453867-34.63031467-105.94440533-22.04194133-34.291712 15.75594667-56.098816 53.53745067-56.098816 91.31895467 0 50.37533867 40.50670933 91.308032 90.36868266 91.308032 37.404672 0 74.79842133-22.03648 90.374144-56.672256v-0.01092267zM292.388864 328.68488533c0-9.44810667 3.10749867-15.745024 9.34980267-22.04194133 3.10749867-9.44264533 12.45730133-12.59383467 21.80164266-12.59383467 15.58664533 0 31.17329067 12.59383467 31.17329067 28.33885867 0 15.73956267-12.47368533 31.48458667-28.049408 34.63031467-18.70506667 0-34.28078933-12.58837333-34.28078933-28.33339734h0.00546133z m-104.333312 384.62532267c12.54468267 12.53376 31.36989867 12.53376 43.91458133 0l131.72736-131.57444267 109.7728 109.64718934c3.14026667 3.129344 3.14026667 3.129344 6.275072 3.129344 12.550144 6.26961067 25.08936533 6.26961067 37.63950934-3.129344L827.88352 381.25568c12.54468267-12.53376 12.54468267-31.326208 0-43.86542933-12.55560533-12.52829867-31.37536-12.52829867-43.91458133 0l-288.54408534 288.21640533L385.65751467 512.82466133l-3.13480534-3.13480533c-12.550144-9.39349333-28.229632-9.39349333-40.779776 3.13480533L184.93166933 669.46116267c-9.404416 12.53376-9.404416 31.33166933 3.13480534 43.859968l-0.01092267-0.01092267z m0 0" fill="#8a8a8a" p-id="616"></path></svg>